<?xml version="1.0" encoding="UTF-8"?>
<svg version="1.1" xmlns="http://www.w3.org/2000/svg" width="200" height="200">
<path d="M0 0 C66 0 132 0 200 0 C200 66 200 132 200 200 C134 200 68 200 0 200 C0 134 0 68 0 0 Z " fill="#FEFEFF" transform="translate(0,0)"/>
<path d="M0 0 C11.79553029 6.72293111 18.36847287 14.83471723 23.3125 27.3125 C25.55904616 39.36215669 23.74719045 50.28242557 17.3125 60.75 C9.84449225 71.17488391 0.48039676 76.79757704 -12 79 C-23.39473622 80.07768628 -32.42637786 77.88843418 -41.609375 71.015625 C-48.3798295 65.30720258 -53.04685925 59.36205118 -56 51 C-56.4125 49.9275 -56.825 48.855 -57.25 47.75 C-59.42008759 36.89956205 -58.35753411 26.33371735 -52.64453125 16.71875 C-51.19410101 14.69670248 -49.66466839 12.8487423 -48 11 C-47.46375 10.38382813 -46.9275 9.76765625 -46.375 9.1328125 C-34.50699575 -3.66924764 -16.03205877 -6.92682844 0 0 Z " fill="#064FFE" transform="translate(117,35)"/>
<path d="M0 0 C10.26856253 -0.70279135 17.75629727 1.04687744 25.8125 7.625 C30.92535738 12.44827962 35.75108707 19.79274141 36.09765625 27.04296875 C36.06510417 29.02864583 36.03255208 31.01432292 36 33 C29.86234056 35.04588648 23.76584944 34.50230145 17.84765625 31.97265625 C12.21847169 29.00930116 8.36745552 24.87598194 6 19 C5.15343741 15.97949757 4.42571358 12.94845062 3.7265625 9.890625 C2.83836349 6.35693001 1.56598564 3.28111277 0 0 Z " fill="#06AEAB" transform="translate(72,73)"/>
<path d="M0 0 C0.33 0 0.66 0 1 0 C1.14695312 1.35931641 1.14695312 1.35931641 1.296875 2.74609375 C2.83009155 15.23652171 6.71674036 22.99903056 13.9765625 33.08203125 C17.53032704 38.20686158 18.27536818 41.02027115 18.25 47.375 C18.25773437 49.30472656 18.25773437 49.30472656 18.265625 51.2734375 C18.00947024 54.86713815 17.30334733 57.65887947 16 61 C15.67 61 15.34 61 15 61 C14.95875 59.7625 14.9175 58.525 14.875 57.25 C13.75964373 47.67903744 8.84469743 39.63944166 1.4375 33.62109375 C-3.95843428 30.03245156 -9.6657816 28.15678102 -16 27 C-14 25 -14 25 -11.6875 24.76953125 C-10.3571875 24.79080078 -10.3571875 24.79080078 -9 24.8125 C-7.6696875 24.82216797 -7.6696875 24.82216797 -6.3125 24.83203125 C-4 25 -4 25 -2 26 C-2.32226562 25.30519531 -2.64453125 24.61039063 -2.9765625 23.89453125 C-5.01843346 18.1196214 -5.08915771 11.18223469 -3.1015625 5.375 C-2 3.1875 -2 3.1875 0 0 Z " fill="#F2F6FF" transform="translate(98,41)"/>
<path d="M0 0 C5 0 5 0 6.58203125 1.3125 C7.72135417 2.875 8.86067708 4.4375 10 6 C13.21495376 5.31735356 13.21495376 5.31735356 14.3125 2.4375 C14.869375 1.633125 15.42625 0.82875 16 0 C17.98 0 19.96 0 22 0 C22 6.93 22 13.86 22 21 C20.35 21 18.7 21 17 21 C16.505 14.565 16.505 14.565 16 8 C14.02 10.97 14.02 10.97 12 14 C8.83884224 12.63016497 8.0072908 12.0109362 6 9 C5.67 12.96 5.34 16.92 5 21 C3.35 21 1.7 21 0 21 C0 14.07 0 7.14 0 0 Z " fill="#1156FF" transform="translate(81,123)"/>
<path d="M0 0 C2.5 1.5 2.5 1.5 4 4 C4.78550518 7.99298467 4.60146332 10.95397683 2.5625 14.5 C-1.23333509 16.72195225 -4.71496708 16.91706197 -9 16 C-11.81980567 13.26564299 -12.19989951 10.66263128 -12.4375 6.875 C-12 3 -12 3 -10.5 1 C-6.92263798 -0.43094481 -3.79547375 -0.67665208 0 0 Z " fill="#185CFF" transform="translate(58,128)"/>
<path d="M0 0 C1.4370809 -0.05422947 2.87475462 -0.09289723 4.3125 -0.125 C5.11300781 -0.14820312 5.91351563 -0.17140625 6.73828125 -0.1953125 C9 0 9 0 12 2 C12.36328125 4.75 12.36328125 4.75 12.3125 8 C12.30863281 9.0725 12.30476563 10.145 12.30078125 11.25 C12 14 12 14 10 16 C7.6875 16.30078125 7.6875 16.30078125 5 16.3125 C4.113125 16.32925781 3.22625 16.34601563 2.3125 16.36328125 C1.549375 16.24339844 0.78625 16.12351563 0 16 C-2.14915785 12.77626323 -2.38286803 11.73296326 -2 8 C0 6 0 6 3.625 5.875 C5.295625 5.936875 5.295625 5.936875 7 6 C7 5.34 7 4.68 7 4 C4.36 4.33 1.72 4.66 -1 5 C-0.67 3.35 -0.34 1.7 0 0 Z " fill="#0E54FF" transform="translate(107,128)"/>
<path d="M0 0 C2.4375 1.6875 2.4375 1.6875 4 4 C4 5.65 4 7.3 4 9 C0.7 9 -2.6 9 -6 9 C-5.67 9.66 -5.34 10.32 -5 11 C-2.36 11 0.28 11 3 11 C2.67 12.65 2.34 14.3 2 16 C-5.95467422 16.61189802 -5.95467422 16.61189802 -9.5625 14.5 C-11.59904214 10.95818758 -11.79285673 7.98880501 -11 4 C-8.16250305 -0.53999512 -5.10870514 -0.72981502 0 0 Z " fill="#2665FF" transform="translate(155,128)"/>
<path d="M0 0 C1.98 0 3.96 0 6 0 C7.32 2.31 8.64 4.62 10 7 C11.32 4.69 12.64 2.38 14 0 C15.65 0 17.3 0 19 0 C18.02101465 2.63572979 17.11045137 4.84978614 15.4375 7.125 C13.23105499 11.53789001 13.24754766 16.125872 13 21 C11.02 21 9.04 21 7 21 C6.99742188 20.38253906 6.99484375 19.76507813 6.9921875 19.12890625 C6.69919299 12.71232645 5.15465225 8.92142414 1.27734375 3.8125 C0 2 0 2 0 0 Z " fill="#1E60FF" transform="translate(29,123)"/>
<path d="M0 0 C1.32 0 2.64 0 4 0 C4.33 3.63 4.66 7.26 5 11 C6.32 11 7.64 11 9 11 C9.33 7.37 9.66 3.74 10 0 C11.32 0 12.64 0 14 0 C14.0810206 2.10353495 14.13919907 4.20795952 14.1875 6.3125 C14.22230469 7.48425781 14.25710937 8.65601563 14.29296875 9.86328125 C14 13 14 13 12.73828125 14.89453125 C10.66232112 16.21474859 9.4484873 16.40282372 7 16.375 C6.319375 16.38273437 5.63875 16.39046875 4.9375 16.3984375 C2.31106228 15.85832329 1.49179666 15.24000427 0 13 C-0.29296875 9.86328125 -0.29296875 9.86328125 -0.1875 6.3125 C-0.16042969 5.13300781 -0.13335937 3.95351562 -0.10546875 2.73828125 C-0.07066406 1.83464844 -0.03585938 0.93101562 0 0 Z " fill="#0D53FF" transform="translate(64,128)"/>
<path d="M0 0 C1.65 0 3.3 0 5 0 C5 1.32 5 2.64 5 4 C6.32 4 7.64 4 9 4 C9 5.32 9 6.64 9 8 C7.68 8 6.36 8 5 8 C5 10.64 5 13.28 5 16 C6.32 16 7.64 16 9 16 C9 17.32 9 18.64 9 20 C5.625 20.125 5.625 20.125 2 20 C0 18 0 18 -0.1953125 15.6171875 C-0.17210937 14.71226562 -0.14890625 13.80734375 -0.125 12.875 C-0.10695312 11.96492187 -0.08890625 11.05484375 -0.0703125 10.1171875 C-0.04710937 9.41851562 -0.02390625 8.71984375 0 8 C-0.66 8 -1.32 8 -2 8 C-2 6.68 -2 5.36 -2 4 C-1.34 4 -0.68 4 0 4 C0 2.68 0 1.36 0 0 Z " fill="#1B5DFF" transform="translate(134,124)"/>
<path d="M0 0 C1.65 0 3.3 0 5 0 C5 1.32 5 2.64 5 4 C5.99 4 6.98 4 8 4 C8 5.32 8 6.64 8 8 C7.01 8 6.02 8 5 8 C5 10.64 5 13.28 5 16 C5.99 16 6.98 16 8 16 C8 17.32 8 18.64 8 20 C5.125 20.125 5.125 20.125 2 20 C0 18 0 18 -0.1953125 15.6171875 C-0.17210938 14.71226562 -0.14890625 13.80734375 -0.125 12.875 C-0.10695313 11.96492187 -0.08890625 11.05484375 -0.0703125 10.1171875 C-0.04710938 9.41851562 -0.02390625 8.71984375 0 8 C-0.66 8 -1.32 8 -2 8 C-2 6.68 -2 5.36 -2 4 C-1.34 4 -0.68 4 0 4 C0 2.68 0 1.36 0 0 Z " fill="#1055FF" transform="translate(123,124)"/>
<path d="M0 0 C1.8871875 0.0309375 1.8871875 0.0309375 3.8125 0.0625 C3.8125 1.3825 3.8125 2.7025 3.8125 4.0625 C1.5025 4.0625 -0.8075 4.0625 -3.1875 4.0625 C-3.1875 8.0225 -3.1875 11.9825 -3.1875 16.0625 C-4.5075 16.0625 -5.8275 16.0625 -7.1875 16.0625 C-7.1875 11.1125 -7.1875 6.1625 -7.1875 1.0625 C-4.43671116 0.14557039 -2.82801087 -0.04636083 0 0 Z " fill="#1358FF" transform="translate(168.1875,127.9375)"/>
<path d="M0 0 C2.5625 0.3125 2.5625 0.3125 4.4375 1.5 C5.5625 3.3125 5.5625 3.3125 5.375 5.875 C4.5625 8.3125 4.5625 8.3125 2.5625 10.3125 C-0.4375 10.625 -0.4375 10.625 -3.4375 10.3125 C-5.4375 7.3125 -5.4375 7.3125 -5.1875 4.75 C-4.19253762 1.51637226 -3.41216263 0.43745675 0 0 Z " fill="#EEF3FF" transform="translate(108.4375,41.6875)"/>
<path d="M0 0 C0.33 0.66 0.66 1.32 1 2 C0.01 2.495 0.01 2.495 -1 3 C-0.34 3.33 0.32 3.66 1 4 C0.67 5.65 0.34 7.3 0 9 C-0.99 9 -1.98 9 -3 9 C-3 9.66 -3 10.32 -3 11 C-4.65 10.67 -6.3 10.34 -8 10 C-8.625 6.625 -8.625 6.625 -9 3 C-6.23776722 0.23776722 -3.79293383 0.42143709 0 0 Z " fill="#2162FF" transform="translate(114,133)"/>
<path d="M0 0 C1.66611905 -0.042721 3.33382885 -0.04063832 5 0 C6 1 6 1 6.1875 3.9375 C6 7 6 7 4 9 C1.875 8.625 1.875 8.625 0 8 C0 5.36 0 2.72 0 0 Z " fill="#EFF4FF" transform="translate(51,132)"/>
<path d="M0 0 C0 2.64 0 5.28 0 8 C-1.65 8.33 -3.3 8.66 -5 9 C-5 6.36 -5 3.72 -5 1 C-1.125 0 -1.125 0 0 0 Z " fill="#EBF1FF" transform="translate(144,131)"/>
<path d="M0 0 C3.3 0 6.6 0 10 0 C7 3 7 3 3.8125 3.1875 C2.4203125 3.0946875 2.4203125 3.0946875 1 3 C0.67 2.01 0.34 1.02 0 0 Z " fill="#E8EFFF" transform="translate(149,137)"/>
<path d="M0 0 C1.65 0 3.3 0 5 0 C5 1.32 5 2.64 5 4 C3.35 4 1.7 4 0 4 C0 2.68 0 1.36 0 0 Z " fill="#D7E3FF" transform="translate(110,137)"/>
<path d="M0 0 C0.33 0 0.66 0 1 0 C1 2.64 1 5.28 1 8 C0.34 7.34 -0.32 6.68 -1 6 C-1.99 6.495 -1.99 6.495 -3 7 C-1.125 1.125 -1.125 1.125 0 0 Z " fill="#DBE6FF" transform="translate(98,41)"/>
</svg>
